<?xml version="1.0" encoding="UTF-8" standalone="no"?>
<!-- Created with Inkscape (http://www.inkscape.org/) -->

<svg
   width="210mm"
   height="297mm"
   viewBox="0 0 210 297"
   version="1.1"
   id="svg5"
   xml:space="preserve"
   inkscape:version="1.2.1 (9c6d41e410, 2022-07-14)"
   sodipodi:docname="favicon_bw.svg"
   xmlns:inkscape="http://www.inkscape.org/namespaces/inkscape"
   xmlns:sodipodi="http://sodipodi.sourceforge.net/DTD/sodipodi-0.dtd"
   xmlns="http://www.w3.org/2000/svg"
   xmlns:svg="http://www.w3.org/2000/svg"><sodipodi:namedview
     id="namedview7"
     pagecolor="#ffffff"
     bordercolor="#000000"
     borderopacity="0.25"
     inkscape:showpageshadow="2"
     inkscape:pageopacity="0.0"
     inkscape:pagecheckerboard="0"
     inkscape:deskcolor="#d1d1d1"
     inkscape:document-units="mm"
     showgrid="false"
     inkscape:zoom="2.9540685"
     inkscape:cx="343.25542"
     inkscape:cy="389.29362"
     inkscape:window-width="1920"
     inkscape:window-height="1009"
     inkscape:window-x="-8"
     inkscape:window-y="-8"
     inkscape:window-maximized="1"
     inkscape:current-layer="layer2" /><defs
     id="defs2" /><g
     inkscape:label="Layer 1"
     inkscape:groupmode="layer"
     id="layer1"><rect
       style="fill:#000000;fill-opacity:1;stroke-width:0.177;stroke-linejoin:round;-inkscape-stroke:none;stop-color:#000000"
       id="rect2908"
       width="47.436073"
       height="47.752739"
       x="85.752266"
       y="78.722351"
       rx="4.1996865"
       ry="4.6350231" /></g><g
     inkscape:groupmode="layer"
     id="layer2"
     inkscape:label="Layer 2"><rect
       style="fill:#000000;stroke-width:0.177;stroke-linejoin:round;-inkscape-stroke:none;stop-color:#000000;fill-opacity:1"
       id="rect408"
       width="33.318455"
       height="21.898825"
       x="92.297493"
       y="102.28407"
       rx="4.1996865"
       ry="4.6350231" /><path
       style="fill:#ffffff;stroke:none;stroke-width:0.0846667;fill-opacity:1"
       d="m 108.61247,80.166155 c -1.81831,0.436127 -1.0762,3.034183 0.67733,2.619113 1.79163,-0.424096 1.06206,-3.036297 -0.67733,-2.619113 m -11.260671,0.716856 v 12.784666 h 2.709331 v -3.81 l 0.13572,-1.388279 1.38828,-0.135721 h 3.72534 l -0.087,-2.065578 -1.3523,-0.135755 h -3.81 v -3.048 h 5.75734 v -2.201333 h -8.466671 m 17.610671,4.826 v -1.608667 h -2.54 v 9.567333 h 2.62466 v -4.064 c 0,-0.716788 -0.0945,-1.510707 0.13538,-2.201333 0.35086,-1.054286 1.70401,-1.634608 2.65735,-0.96073 0.75091,0.53075 0.76327,1.402944 0.76327,2.23073 v 4.995333 h 2.62467 v -4.826 c 0,-0.958511 0.0997,-1.960253 -0.2286,-2.878666 -0.65151,-1.822306 -2.90847,-2.538569 -4.5974,-1.693985 -0.69664,0.348361 -0.92338,0.931037 -1.43933,1.439985 m -7.366,-1.608667 v 9.567333 c 0.57768,0 2.11641,0.275082 2.57361,-0.08704 0.38481,-0.3048 0.13572,-1.900851 0.13572,-2.368296 v -7.112 h -2.70933 m 3.89466,22.314579 c -1.71788,0.45136 -0.81221,2.94996 0.84667,2.51739 1.81982,-0.47455 0.89772,-2.97577 -0.84667,-2.51739 m -13.631331,0.63009 v 12.78467 h 2.624671 c 0,-1.01194 -0.3065,-2.6157 0.0726,-3.556 0.24782,-0.61468 0.9083,-1.2253 1.36669,-1.69334 l 2.48141,3.81 1.08221,1.38828 3.04038,0.0511 c -0.88147,-1.86326 -2.3727,-3.51858 -3.48979,-5.24934 -0.2678,-0.41503 -1.20506,-1.30479 -1.11294,-1.82676 0.0908,-0.51419 0.82871,-1.07773 1.14122,-1.47524 1.04639,-1.33121 2.68655,-2.68461 3.37684,-4.23333 -0.82287,0 -2.3964,-0.30429 -3.12504,0.087 -0.43688,0.23461 -0.7377,0.81051 -1.04775,1.18296 -0.83981,1.00855 -1.6654,2.02988 -2.49378,3.048 -0.38159,0.46897 -0.73804,1.08475 -1.29209,1.35467 v -5.67267 h -2.624671 m 18.288001,0.93133 v 2.286 h -1.27 v 1.94734 h 1.27 c 0,2.73261 -1.01253,7.57021 2.87867,7.77163 0.56057,0.029 1.1485,-0.12395 1.69333,-0.2363 l -0.33867,-1.94733 c -0.40225,0.0317 -0.8084,0.14173 -1.17619,-0.0923 -0.81373,-0.51757 -0.43247,-2.62568 -0.43247,-3.46371 0,-0.44611 -0.20016,-1.56033 0.13572,-1.89628 0.31775,-0.31767 1.30589,-0.13572 1.72694,-0.13572 v -1.94734 c -0.42105,0 -1.40919,0.18195 -1.72694,-0.13572 -0.36483,-0.36491 -0.13572,-1.65862 -0.13572,-2.15028 h -2.62467 m -5.50333,2.286 v 9.56734 h 2.62466 v -9.56734 z"
       id="path354" /></g></svg>
